<?xml version="1.0" encoding="iso-8859-1"?>
<!-- Generator: Adobe Illustrator 19.0.0, SVG Export Plug-In . SVG Version: 6.00 Build 0)  -->
<svg version="1.1" id="Layer_1" xmlns="http://www.w3.org/2000/svg" xmlns:xlink="http://www.w3.org/1999/xlink" x="0px" y="0px"
	 viewBox="0 0 512.002 512.002" style="enable-background:new 0 0 512.002 512.002;" xml:space="preserve">
<g>
	<path style="fill:#333333;" d="M256.001,153.396c-5.185,0-9.564,6.605-9.564,14.422s4.38,14.421,9.564,14.421
		c5.185,0,9.564-6.604,9.564-14.421C265.565,160.001,261.185,153.396,256.001,153.396z"/>
	<path style="fill:#333333;" d="M195.195,106.156c0,15.13,9.434,27.44,21.03,27.44c8.286,0,15.674-6.354,19.071-15.931
		l-39.972-14.479C195.239,104.173,195.195,105.164,195.195,106.156z"/>
</g>
<path style="fill:#E6E6E6;" d="M473.605,214.302h-98.65c-3.102,0-5.621-2.507-5.635-5.61c-0.125-28.113,0.41-46.892,0.453-48.336
	C369.748,92.932,339.849,20.92,256,20.92c-83.85,0-113.75,72.014-113.775,139.438c0.043,1.462,0.578,20.235,0.453,48.334
	c-0.014,3.102-2.532,5.61-5.635,5.61H38.392c-15.209,0-27.124,11.381-27.124,25.908v35.875c0,14.957,12.167,27.125,27.124,27.125
	s27.125-12.169,27.125-27.125c0-3.111,2.523-5.635,5.635-5.635s5.635,2.523,5.635,5.635v20.924
	c0,14.957,12.169,27.125,27.126,27.125c10.677,0,20.396-6.305,24.764-16.062c1.112-2.485,3.845-3.819,6.489-3.17
	c2.645,0.65,4.445,3.099,4.278,5.818c-2.765,44.966-7.922,62.679-16.464,92.023c-1.85,6.358-3.948,13.564-6.203,21.674
	c-2.577,9.269-2.663,15.89-0.241,18.643c3.912,4.445,17.123,2.537,28.781,0.852c19.383-2.799,41.35-5.972,51.438,10.979
	c22.285,37.451,57.479,36.245,58.962,36.174c0.1-0.005,0.194,0.015,0.293,0.015c0.099,0,0.194-0.019,0.294-0.014
	c1.468,0.071,36.657,1.277,58.943-36.176c10.087-16.951,32.056-13.779,51.438-10.979c11.659,1.684,24.871,3.593,28.78-0.852
	c2.422-2.752,2.336-9.373-0.241-18.643c-2.256-8.116-4.354-15.325-6.206-21.686c-8.542-29.342-13.698-47.052-16.461-92.013
	c-0.167-2.718,1.634-5.167,4.279-5.817c2.643-0.652,5.375,0.684,6.489,3.17c4.367,9.757,14.087,16.062,24.763,16.062
	c14.958,0,27.126-12.169,27.126-27.125v-20.924c0-3.111,2.523-5.635,5.635-5.635c3.111,0,5.635,2.523,5.635,5.635
	c0,14.957,12.167,27.125,27.124,27.125s27.125-12.169,27.125-27.125v-35.875C500.731,225.682,488.816,214.302,473.605,214.302z
	 M183.926,106.156c0-4.05,0.54-8.094,1.604-12.016c0.412-1.52,1.442-2.798,2.841-3.525c1.397-0.727,3.035-0.834,4.517-0.298
	l51.125,18.519c2.62,0.949,4.153,3.669,3.607,6.402c-3.484,17.444-16.395,29.627-31.395,29.627
	C198.415,144.865,183.926,127.5,183.926,106.156z M256.001,193.51c-11.488,0-20.834-11.524-20.834-25.691
	s9.347-25.692,20.834-25.692c11.488,0,20.834,11.525,20.834,25.692C276.835,181.984,267.488,193.51,256.001,193.51z
	 M295.776,144.865c-15.002,0-27.913-12.183-31.396-29.627c-0.545-2.732,0.988-5.452,3.607-6.401l51.128-18.519
	c1.48-0.538,3.118-0.429,4.517,0.298c1.397,0.727,2.427,2.005,2.841,3.525c1.064,3.921,1.602,7.963,1.602,12.016
	C328.075,127.5,313.586,144.865,295.776,144.865z"/>
<path style="fill:#333333;" d="M276.703,117.665c3.397,9.577,10.786,15.93,19.073,15.93c11.596,0,21.03-12.309,21.03-27.44
	c0-0.992-0.043-1.982-0.128-2.969L276.703,117.665z"/>
<path d="M256.001,142.127c-11.488,0-20.834,11.525-20.834,25.692c0,14.165,9.347,25.691,20.834,25.691
	c11.488,0,20.834-11.524,20.834-25.691C276.835,153.652,267.488,142.127,256.001,142.127z M256.001,182.24
	c-5.185,0-9.564-6.604-9.564-14.421s4.38-14.422,9.564-14.422c5.185,0,9.564,6.605,9.564,14.422S261.185,182.24,256.001,182.24z"/>
<path d="M473.605,203.033h-93.031c-0.038-25.727,0.461-42.242,0.467-42.418c0.002-0.057,0.003-0.116,0.003-0.174
	c0-42.698-10.643-79.364-30.78-106.036c-22.105-29.279-54.7-44.755-94.263-44.755s-72.16,15.476-94.264,44.755
	c-20.137,26.672-30.78,63.339-30.78,106.036c0,0.059,0.001,0.116,0.002,0.175c0.006,0.175,0.506,16.69,0.467,42.416H38.393
	C16.864,203.033,0,219.364,0,240.211v35.875c0,21.17,17.223,38.394,38.393,38.394c10.803,0,20.577-4.483,27.56-11.687
	c2.797,18.437,18.755,32.612,37.962,32.612c8.432,0,16.441-2.777,22.948-7.629c-2.842,31.082-7.369,46.631-14.701,71.818
	c-1.859,6.387-3.968,13.629-6.241,21.806c-3.842,13.818-3.157,23.067,2.156,29.105c7.941,9.027,22.956,6.856,38.852,4.562
	c16.668-2.407,33.905-4.897,40.143,5.587c23.504,39.5,59.98,41.698,67.788,41.698c0.514,0,1.77,0,2.284,0
	c7.812-0.001,44.285-2.2,67.788-41.696c6.24-10.484,23.474-7.996,40.142-5.588c15.896,2.297,30.909,4.464,38.851-4.562
	c5.312-6.038,5.997-15.287,2.156-29.104c-2.274-8.182-4.383-15.427-6.243-21.816c-7.331-25.185-11.858-40.731-14.699-71.808
	c6.507,4.851,14.516,7.629,22.948,7.629c19.205,0,35.164-14.176,37.961-32.612c6.984,7.204,16.757,11.687,27.559,11.687
	c21.171,0,38.395-17.224,38.395-38.395v-35.875C512,219.364,495.135,203.033,473.605,203.033z M500.731,276.085
	c0,14.957-12.169,27.125-27.125,27.125s-27.124-12.169-27.124-27.125c0-3.111-2.523-5.635-5.635-5.635
	c-3.111,0-5.635,2.523-5.635,5.635v20.924c0,14.957-12.169,27.125-27.126,27.125c-10.677,0-20.396-6.305-24.763-16.062
	c-1.113-2.486-3.846-3.823-6.489-3.17c-2.645,0.65-4.446,3.099-4.279,5.817c2.763,44.961,7.919,62.671,16.461,92.013
	c1.852,6.36,3.95,13.569,6.206,21.686c2.577,9.27,2.663,15.89,0.241,18.643c-3.908,4.445-17.12,2.536-28.78,0.852
	c-19.382-2.799-41.35-5.972-51.438,10.979c-22.286,37.452-57.473,36.247-58.943,36.176c-0.1-0.006-0.195,0.014-0.294,0.014
	c-0.098,0-0.193-0.02-0.293-0.015c-1.483,0.071-36.677,1.277-58.962-36.174c-10.087-16.95-32.055-13.777-51.438-10.979
	c-11.657,1.685-24.869,3.593-28.781-0.852c-2.422-2.752-2.336-9.373,0.241-18.643c2.255-8.112,4.352-15.317,6.203-21.674
	c8.543-29.344,13.699-47.056,16.464-92.023c0.167-2.718-1.634-5.167-4.278-5.818c-2.644-0.65-5.377,0.684-6.489,3.17
	c-4.368,9.758-14.089,16.062-24.764,16.062c-14.958,0-27.126-12.169-27.126-27.125v-20.924c0-3.111-2.523-5.635-5.635-5.635
	c-3.111,0-5.635,2.523-5.635,5.635c0,14.957-12.169,27.125-27.125,27.125c-14.955,0-27.124-12.169-27.124-27.125v-35.875
	c0-14.528,11.914-25.908,27.124-25.908h98.651c3.102,0,5.621-2.507,5.635-5.61c0.125-28.1-0.41-46.872-0.453-48.334
	C142.25,92.934,172.15,20.92,256,20.92c83.849,0,113.748,72.012,113.774,139.436c-0.043,1.445-0.578,20.223-0.453,48.336
	c0.014,3.102,2.532,5.61,5.635,5.61h98.65c15.21,0,27.125,11.381,27.125,25.908V276.085z"/>
<path d="M247.62,115.238c0.545-2.732-0.987-5.453-3.607-6.402l-51.125-18.519c-1.481-0.536-3.119-0.428-4.517,0.298
	c-1.397,0.727-2.427,2.005-2.841,3.525c-1.064,3.923-1.604,7.965-1.604,12.016c0,21.344,14.489,38.709,32.299,38.709
	C231.226,144.865,244.136,132.681,247.62,115.238z M216.225,133.595c-11.596,0-21.03-12.309-21.03-27.44
	c0-0.992,0.043-1.982,0.128-2.971l39.972,14.479C231.899,127.243,224.511,133.595,216.225,133.595z"/>
<path d="M323.632,90.615c-1.398-0.727-3.037-0.835-4.517-0.298l-51.128,18.519c-2.619,0.949-4.152,3.669-3.607,6.401
	c3.483,17.444,16.393,29.627,31.396,29.627c17.81,0,32.299-17.365,32.299-38.709c0-4.054-0.54-8.096-1.602-12.016
	C326.059,92.619,325.029,91.341,323.632,90.615z M295.776,133.595c-8.287,0-15.677-6.354-19.073-15.93l39.974-14.479
	c0.086,0.987,0.128,1.978,0.128,2.969C316.806,121.286,307.371,133.595,295.776,133.595z"/>
<g>
</g>
<g>
</g>
<g>
</g>
<g>
</g>
<g>
</g>
<g>
</g>
<g>
</g>
<g>
</g>
<g>
</g>
<g>
</g>
<g>
</g>
<g>
</g>
<g>
</g>
<g>
</g>
<g>
</g>
</svg>
