<?xml version="1.0" encoding="iso-8859-1"?>
<!-- Generator: Adobe Illustrator 19.0.0, SVG Export Plug-In . SVG Version: 6.00 Build 0)  -->
<svg version="1.1" id="Layer_1" xmlns="http://www.w3.org/2000/svg" xmlns:xlink="http://www.w3.org/1999/xlink" x="0px" y="0px"
	 viewBox="0 0 512 512" style="enable-background:new 0 0 512 512;" xml:space="preserve">
<g>
	<g>
		<path d="M167.658,173.178c-33.287,0-60.369,27.082-60.369,60.369c0,2.757,1.309,5.351,3.525,6.99
			c2.219,1.64,5.081,2.128,7.717,1.321c32.142-9.858,66.119-9.857,98.255-0.001c0.837,0.256,1.695,0.383,2.549,0.383
			c1.838,0,3.653-0.583,5.168-1.703c2.216-1.639,3.525-4.233,3.525-6.99C228.028,200.26,200.947,173.178,167.658,173.178z
			 M167.659,217.078c-13.857-0.001-27.713,1.567-41.347,4.706c5.129-18.002,21.723-31.22,41.347-31.22
			c11.482,0,22.276,4.471,30.394,12.59c5.267,5.267,8.999,11.659,10.971,18.634C195.384,218.649,181.521,217.078,167.659,217.078z"
			/>
	</g>
</g>
<g>
	<g>
		<path d="M344.343,173.177c-33.287,0-60.369,27.082-60.369,60.369c0,2.757,1.309,5.351,3.525,6.99s5.078,2.13,7.717,1.321
			c32.14-9.856,66.114-9.856,98.254,0c0.837,0.256,1.695,0.383,2.548,0.383c1.839,0,3.655-0.583,5.169-1.703
			c2.216-1.639,3.525-4.233,3.525-6.99C404.712,200.259,377.63,173.177,344.343,173.177z M344.343,217.077
			c-13.857,0-27.712,1.569-41.346,4.707c5.128-18.002,21.722-31.22,41.346-31.22c19.624,0,36.219,13.218,41.346,31.22
			C372.055,218.645,358.2,217.077,344.343,217.077z"/>
	</g>
</g>
<g>
	<g>
		<path d="M354.281,287.774c-2.22-1.64-5.083-2.129-7.717-1.321c-59.247,18.17-121.881,18.168-181.126,0
			c-2.636-0.809-5.5-0.319-7.717,1.321c-2.216,1.639-3.525,4.233-3.525,6.99c0,56.136,45.67,101.804,101.806,101.804
			c56.136,0,101.805-45.67,101.805-101.804C357.806,292.007,356.497,289.413,354.281,287.774z M256.001,379.183
			c-42.561,0-77.865-31.655-83.604-72.66c54.945,14.591,112.265,14.591,167.206,0C333.865,347.528,298.561,379.183,256.001,379.183z
			"/>
	</g>
</g>
<g>
	<g>
		<path d="M503.308,346.8c-15.468,0-28.052-12.584-28.052-28.052v-92.883c0-24.974-20.255-45.302-45.199-45.432V65.551
			c0-3.988-2.715-7.466-6.585-8.433c-109.56-27.39-225.381-27.39-334.944,0c-3.87,0.968-6.585,4.445-6.585,8.433v114.882
			c-24.944,0.13-45.199,20.458-45.199,45.432v92.883c0,15.468-12.584,28.052-28.052,28.052C3.891,346.8,0,350.692,0,355.493
			c0,4.801,3.891,8.693,8.693,8.693c25.054,0,45.438-20.383,45.438-45.438v-92.883c0-15.388,12.455-27.916,27.813-28.046v103.55
			c0,95.974,78.081,174.056,174.056,174.056s174.056-78.081,174.056-174.056v-103.55c15.358,0.13,27.813,12.658,27.813,28.046
			v92.883c0,25.054,20.383,45.438,45.438,45.438c4.802,0,8.693-3.892,8.693-8.693C512,350.692,508.11,346.8,503.308,346.8z
			 M412.671,301.369c0,86.388-70.282,156.67-156.67,156.67s-156.67-70.282-156.67-156.67V72.374
			c102.656-24.555,210.684-24.555,313.34,0V301.369z"/>
	</g>
</g>
<g>
</g>
<g>
</g>
<g>
</g>
<g>
</g>
<g>
</g>
<g>
</g>
<g>
</g>
<g>
</g>
<g>
</g>
<g>
</g>
<g>
</g>
<g>
</g>
<g>
</g>
<g>
</g>
<g>
</g>
</svg>
