<?xml version="1.0" encoding="iso-8859-1"?>
<!-- Generator: Adobe Illustrator 19.0.0, SVG Export Plug-In . SVG Version: 6.00 Build 0)  -->
<svg version="1.1" id="Layer_1" xmlns="http://www.w3.org/2000/svg" xmlns:xlink="http://www.w3.org/1999/xlink" x="0px" y="0px"
	 viewBox="0 0 460 460" style="enable-background:new 0 0 460 460;" xml:space="preserve">
<g id="XMLID_1468_">
	<path id="XMLID_919_" style="fill:#69583E;" d="M370,55v80h-40v-20V95V75c0-5.523-4.477-10-10-10H140c-5.523,0-10,4.477-10,10v20
		v20v20H90V55c0-16.569,13.431-30,30-30h220C356.569,25,370,38.431,370,55z"/>
	<path id="XMLID_1053_" style="fill:#8C7554;" d="M341.392,25.032C354.258,25.619,353.588,45,340.708,45H125
		c-8.284,0-15,6.716-15,15v75H90V55c0-3.51,0.62-6.87,1.728-10h-0.014C95.833,33.349,106.939,25,120,25h220
		C340.466,25,340.93,25.011,341.392,25.032z"/>
	<path id="XMLID_1051_" style="fill:#9B663E;" d="M420,435H40c-22.091,0-40-17.909-40-40V155c0-22.091,17.909-40,40-40h380
		c22.091,0,40,17.909,40,40v240C460,417.091,442.091,435,420,435z"/>
	<path id="XMLID_1035_" style="fill:#B17E4A;" d="M370,435H90V115h280V435z"/>
	<path id="XMLID_944_" style="fill:#E1DFD1;" d="M390,185v50c0,5.523-4.477,10-10,10h-80c-5.523,0-10-4.477-10-10v-50
		c0-5.523,4.477-10,10-10h80C385.523,175,390,179.477,390,185z M320,285h-40c-5.523,0-10,4.477-10,10v50c0,5.523,4.477,10,10,10h40
		c5.523,0,10-4.477,10-10v-50C330,289.477,325.523,285,320,285z M195,185c-30.376,0-55,24.624-55,55s24.624,55,55,55
		s55-24.624,55-55S225.376,185,195,185z"/>
	<path id="XMLID_1121_" style="fill:#A5AA61;" d="M280,340v-40c0-2.761,2.239-5,5-5h30c2.761,0,5,2.239,5,5v40c0,2.761-2.239,5-5,5
		h-30C282.239,345,280,342.761,280,340z"/>
	<path id="XMLID_1120_" style="fill:#CA7D69;" d="M375,235h-70c-2.761,0-5-2.239-5-5v-40c0-2.761,2.239-5,5-5h70
		c2.761,0,5,2.239,5,5v40C380,232.761,377.761,235,375,235z"/>
	<path id="XMLID_1118_" style="fill:#DDAC67;" d="M195,195c24.853,0,45,20.147,45,45s-20.147,45-45,45s-45-20.147-45-45
		S170.147,195,195,195z"/>
</g>
<g>
</g>
<g>
</g>
<g>
</g>
<g>
</g>
<g>
</g>
<g>
</g>
<g>
</g>
<g>
</g>
<g>
</g>
<g>
</g>
<g>
</g>
<g>
</g>
<g>
</g>
<g>
</g>
<g>
</g>
</svg>
