<?xml version="1.0" encoding="iso-8859-1"?>
<!-- Generator: Adobe Illustrator 19.0.0, SVG Export Plug-In . SVG Version: 6.00 Build 0)  -->
<svg version="1.1" id="Layer_1" xmlns="http://www.w3.org/2000/svg" xmlns:xlink="http://www.w3.org/1999/xlink" x="0px" y="0px"
	 viewBox="0 0 512 512" style="enable-background:new 0 0 512 512;" xml:space="preserve">
<g>
	<path style="fill:#F95428;" d="M8.693,364.229c-4.802,0-8.693-3.892-8.693-8.693s3.891-8.693,8.693-8.693
		c15.467,0,28.05-12.583,28.05-28.05v-92.889c0-25.053,20.382-45.436,45.436-45.436h8.461c4.802,0,8.693,3.892,8.693,8.693
		s-3.891,8.693-8.693,8.693h-8.461c-15.467,0-28.05,12.583-28.05,28.05v92.889C54.129,343.847,33.747,364.229,8.693,364.229z"/>
	<path style="fill:#F95428;" d="M503.307,364.229c-25.053,0-45.436-20.382-45.436-45.436v-92.889c0-15.467-12.583-28.05-28.05-28.05
		h-8.45c-4.802,0-8.693-3.892-8.693-8.693s3.891-8.693,8.693-8.693h8.45c25.053,0,45.436,20.382,45.436,45.436v92.889
		c0,15.467,12.583,28.05,28.05,28.05c4.802,0,8.693,3.892,8.693,8.693S508.109,364.229,503.307,364.229z"/>
</g>
<path style="fill:#F7B239;" d="M256.006,45.227c-33.718,0-67.424,2.504-100.851,7.499c-21.652,3.245-43.187,7.534-64.514,12.866
	v235.826c0,91.324,74.03,165.354,165.366,165.354c10.976,0,21.71-1.066,32.095-3.118c0.058-0.012,0.104-0.023,0.162-0.035
	c75.885-14.998,133.109-81.912,133.109-162.202V65.592C367.08,52.019,311.537,45.227,256.006,45.227z M115.977,233.589
	c0-23.9,16.239-44.01,38.273-49.91c0.29-0.081,0.591-0.162,0.904-0.243c3.999-0.985,8.195-1.518,12.506-1.518
	c28.537,0,51.672,23.135,51.672,51.672c-16.83-5.158-34.251-7.743-51.672-7.743c-4.173,0-8.345,0.151-12.506,0.452
	c-0.012,0-0.012,0-0.023,0C141.918,227.237,128.785,229.672,115.977,233.589z M256.006,387.921c-51.428,0-93.12-41.692-93.12-93.109
	c30.345,9.307,61.733,13.955,93.12,13.955s62.776-4.648,93.109-13.955C349.115,346.228,307.423,387.921,256.006,387.921z
	 M344.351,225.847c-17.421,0-34.842,2.585-51.683,7.743c0-28.537,23.135-51.672,51.672-51.672c28.548,0,51.683,23.135,51.683,51.672
	C379.181,228.431,361.76,225.847,344.351,225.847z"/>
<path style="fill:#E09B2D;" d="M288.263,463.62c-0.058,0.012-0.104,0.023-0.162,0.035c-10.385,2.052-21.118,3.118-32.095,3.118
	c-91.335,0-165.366-74.03-165.366-165.354V65.592c21.327-5.332,42.863-9.62,64.514-12.866v130.709
	c-0.313,0.081-0.614,0.162-0.904,0.243c-22.034,5.9-38.273,26.01-38.273,49.91c12.808-3.918,25.94-6.352,39.154-7.291
	c0.012,0,0.012,0,0.023,0v75.12C155.154,381.708,212.378,448.61,288.263,463.62z"/>
</svg>
