<?xml version="1.0" encoding="iso-8859-1"?>
<!-- Generator: Adobe Illustrator 19.0.0, SVG Export Plug-In . SVG Version: 6.00 Build 0)  -->
<svg version="1.1" id="Layer_1" xmlns="http://www.w3.org/2000/svg" xmlns:xlink="http://www.w3.org/1999/xlink" x="0px" y="0px"
	 viewBox="0 0 512 512" style="enable-background:new 0 0 512 512;" xml:space="preserve">
<path style="fill:#4D4D4D;" d="M109.074,209.835l-79.471,79.458c-13.695,13.695-13.694,35.977,0.001,49.672l64.622,64.61
	l38.254,52.547c1.648,2.264,4.205,3.694,6.998,3.911c2.791,0.218,5.539-0.797,7.518-2.776l0.001-0.001l33.407-33.42
	c3.739-3.741,3.739-9.805-0.001-13.544L134.48,364.37c-1.797-1.797-4.232-2.806-6.774-2.806c-2.54,0-4.976,1.009-6.771,2.806
	c-0.001,0.001-0.001,0.001-0.001,0.001l-19.407,19.416l-58.379-58.368c-6.226-6.226-6.226-16.356-0.001-22.582l79.471-79.458
	c6.222-6.222,16.347-6.222,22.57,0l19.9,1.828l-6.355-15.373C145.041,196.145,122.764,196.145,109.074,209.835z M160.087,417.067
	l-18.715,18.722l-27.281-37.473l13.619-13.626L160.087,417.067z"/>
<polygon style="fill:#B3B3B3;" points="415.527,0 436.286,20.779 445.317,29.808 390.243,84.883 360.434,55.074 "/>
<polygon style="fill:#999999;" points="436.286,20.779 445.317,29.808 390.243,84.883 381.204,75.844 "/>
<path style="fill:#B3B3B3;" d="M332.321,42.57l-36.115,36.115l-7.729-7.729c-2.902-2.902-3.508-7.386-1.479-10.954l16.831-29.607
	c2.976-5.234,10.118-6.199,14.375-1.941L332.321,42.57z"/>
<path style="fill:#999999;" d="M395.988,79.138l-7.229-7.228l-22.578-22.578l-10.04-10.04c-7.418-7.418-19.445-7.418-26.863,0
	l-0.118,0.118l-36.114,36.114L144.947,223.622l-53.33,53.33l-23.947,23.947c-6.693,6.693-6.693,17.543,0,24.235l53.025,53.025
	l17.036,17.036l64.12-64.12l34.315-34.301l-0.013-0.013l54.185-54.172l18.964-18.964l35.208-35.221h0.013l66.932-66.932
	c7.418-7.418,7.418-19.445,0-26.863L395.988,79.138z"/>
<path style="fill:#4D4D4D;" d="M318.491,254.52c-2.451,0-4.903-0.935-6.771-2.805l-26.397-26.397
	c-3.742-3.741-3.742-9.805-0.001-13.545c3.742-3.741,9.806-3.741,13.545,0l26.397,26.396c3.742,3.741,3.742,9.805,0.001,13.545
	C323.393,253.584,320.942,254.52,318.491,254.52z"/>
<path style="fill:#999999;" d="M329.816,289.087l-13.547-13.545l47.412-47.412l-32.956-32.957l6.767-6.767l-0.006-9.584h0.012
	c2.54,0,4.976,1.009,6.773,2.806L384,221.356c3.741,3.741,3.741,9.805,0,13.545L329.816,289.087z"/>
<path style="fill:#4D4D4D;" d="M369.454,400.679l-34.408,34.417c-5.118,5.12-13.483,4.896-18.334-0.479
	c-17.783-19.705-31.241-40.51-40.909-58.134c-14.878-27.15-43.011-44.378-73.954-45.411l31.864-66.131L369.454,400.679z"/>
<path style="fill:#CCCCCC;" d="M251.503,209.166l-46.957,46.957l-20.585-20.585c-4.091-4.091-4.091-10.724,0-14.816l32.141-32.141
	c4.091-4.091,10.724-4.091,14.816,0L251.503,209.166z"/>
<path style="fill:#666666;" d="M201.852,331.073l-64.12,64.12l-17.036-17.036l-53.025-53.025c-6.693-6.693-6.693-17.543,0-24.235
	l23.947-23.947l89.457,2.656l23.471-23.485l46.957-46.957l136.35-136.349l0.906-0.906l7.228,7.228l15.467,15.467
	c7.418,7.418,7.418,19.445,0,26.863L344.522,188.4h-0.013l-35.208,35.221l-18.963,18.965l-54.185,54.172l0.013,0.013
	L201.852,331.073z"/>
<path style="fill:#4D4D4D;" d="M488.983,484.837l-23.477,23.477c-4.915,4.915-12.882,4.915-17.797,0L345.734,406.34l41.274-41.274
	L488.983,467.04C493.897,471.955,493.897,479.922,488.983,484.837z"/>
<path style="fill:#808080;" d="M400.012,352.26c4.935,4.935,4.934,12.938-0.005,17.872l-3.968,3.965l-41.274,41.274L236.165,296.771
	l54.172-54.185l39.728,39.728L400.012,352.26z"/>
<g>
</g>
<g>
</g>
<g>
</g>
<g>
</g>
<g>
</g>
<g>
</g>
<g>
</g>
<g>
</g>
<g>
</g>
<g>
</g>
<g>
</g>
<g>
</g>
<g>
</g>
<g>
</g>
<g>
</g>
</svg>
