<?xml version="1.0" encoding="iso-8859-1"?>
<!-- Generator: Adobe Illustrator 18.0.0, SVG Export Plug-In . SVG Version: 6.00 Build 0)  -->
<!DOCTYPE svg PUBLIC "-//W3C//DTD SVG 1.1//EN" "http://www.w3.org/Graphics/SVG/1.1/DTD/svg11.dtd">
<svg version="1.1" id="Capa_1" xmlns="http://www.w3.org/2000/svg" xmlns:xlink="http://www.w3.org/1999/xlink" x="0px" y="0px"
	 viewBox="0 0 296.136 296.136" style="enable-background:new 0 0 296.136 296.136;" xml:space="preserve">
<g>
	<g>
		<path style="fill:#FDBD1D;" d="M115.627,205.017h15.029v-10h-16.432C114.393,197.017,114.868,203.017,115.627,205.017z"/>
		<path style="fill:#FDBD1D;" d="M117.659,169.81c-0.629,2.01-1.154,3.207-1.613,6.207h14.61v-11h-11.41
			C118.685,168.017,118.151,168.243,117.659,169.81z"/>
		<g>
			<path style="fill:#FDBD1D;" d="M99.162,157.416c-0.382,1.2-0.743,2.442-1.086,3.711C98.42,159.86,98.78,158.616,99.162,157.416z"
				/>
			<path style="fill:#FDBD1D;" d="M97.216,165.017h-3.184c-1.621,3-2.904,5-3.829,11h5.26c0.426-6,1.191-8.514,2.135-12.307
				C97.471,164.218,97.334,165.017,97.216,165.017z"/>
		</g>
		<g>
			<path style="fill:#FDBD1D;" d="M95.433,190.433c-0.135-1.395-0.239-2.779-0.296-4.144
				C95.194,187.654,95.296,189.037,95.433,190.433z"/>
			<path style="fill:#FDBD1D;" d="M95.689,193.002c0.072,0.576,0.125-0.986,0.21,2.014h-7.103c0.364,2,1.093,8,2.129,10h7.311
				C96.99,203.017,96.188,197.009,95.689,193.002z"/>
		</g>
		<path style="fill:#FDBD1D;" d="M84.656,76.347v7.67h109.251c1.253,0,1.749,0.253,1.749-1.002v-9.998H86.388
			C85.133,73.017,84.656,75.092,84.656,76.347z"/>
		<path style="fill:#58D2D4;" d="M57.656,46.456v237.561h161.763c1.255,0,0.237-0.063,0.237-1.319V43.017H60.876
			C59.62,43.017,57.656,45.201,57.656,46.456z M136.16,247.484c-36.822,0-66.779-29.956-66.779-66.777
			c0-36.822,29.957-66.778,66.779-66.778s66.778,29.955,66.778,66.778C202.939,217.528,172.982,247.484,136.16,247.484z
			 M208.656,83.579c0,7.421-6.017,13.438-13.439,13.438H79.095c-7.422,0-13.439-6.016-13.439-13.438V67.455
			c0-7.421,6.017-13.438,13.439-13.438h116.122c7.422,0,13.439,6.016,13.439,13.438V83.579z"/>
		<path style="fill:#B74B00;" d="M193.907,54.936H78.415c-7.411,0-13.439,6.028-13.439,13.438v14.641
			c0,7.41,6.028,13.439,13.439,13.439h115.492c7.409,0,13.437-6.029,13.437-13.439V68.374
			C207.344,60.964,201.316,54.936,193.907,54.936z M196.182,83.015c0,1.255-1.022,2.277-2.275,2.277H78.415
			c-1.255,0-2.277-1.022-2.277-2.277V68.374c0-1.255,1.022-2.275,2.277-2.275h115.492c1.254,0,2.275,1.02,2.275,2.275V83.015z"/>
		<g>
			<path style="fill:none;" d="M245.362,31.233c0.003,0.179,0.005,0.377,0.006,0.568C245.367,31.61,245.365,31.412,245.362,31.233z"
				/>
			<path style="fill:none;" d="M245.373,32.23c0.003,0.218,0.005,0.453,0.008,0.684C245.378,32.683,245.376,32.448,245.373,32.23z"
				/>
			<path style="fill:none;" d="M245.392,34.159c-0.003-0.279-0.005-0.559-0.008-0.823C245.387,33.601,245.389,33.88,245.392,34.159
				L245.392,34.159z"/>
			<path style="fill:none;" d="M219.419,36.207H52.903c-1.257,0-2.278,1.021-2.278,2.276v244.215c0,1.255,1.022,2.276,2.278,2.276
				h166.516c1.255,0,2.277-1.021,2.277-2.276V38.483C221.695,37.228,220.674,36.207,219.419,36.207z"/>
			<path style="fill:none;" d="M245.484,57.38c-0.002-0.077-0.002-0.152-0.002-0.229c0-0.634-0.002-1.259-0.003-1.877
				c-0.002-0.315-0.002-0.626-0.002-0.937c-0.002-0.416-0.003-0.83-0.003-1.237c-0.002-0.298-0.002-0.592-0.003-0.886
				c0-0.494-0.002-0.985-0.003-1.467c0-0.222-0.002-0.443-0.002-0.663c-0.002-0.419-0.003-0.83-0.003-1.239
				c-0.002-0.339-0.003-0.676-0.003-1.008c-0.002-0.331-0.003-0.658-0.003-0.982c-0.002-0.352-0.003-0.702-0.005-1.046
				c0-0.27-0.002-0.536-0.003-0.802c0-0.373-0.002-0.743-0.003-1.106c-0.002-0.228-0.002-0.451-0.003-0.675
				c-0.002-0.402-0.003-0.8-0.005-1.189c-0.002-0.159-0.002-0.315-0.002-0.472c-0.003-0.412-0.005-0.818-0.006-1.214
				c-0.002-0.167-0.002-0.33-0.003-0.494c-0.002-0.38-0.003-0.756-0.005-1.12c-0.002-0.13-0.002-0.255-0.003-0.382
				c-0.002-0.371-0.005-0.737-0.006-1.091c-0.002-0.158-0.002-0.308-0.003-0.463c-0.002-0.333-0.005-0.666-0.006-0.983
				c0-0.085-0.002-0.164-0.002-0.247c-0.003-0.365-0.006-0.723-0.008-1.066c-0.002-0.08-0.002-0.155-0.003-0.235
				c0-0.038,0-0.074,0-0.113c-0.914-4.879-3.076-8.509-6.008-10.82c-6.621-5.216-17.133-2.921-17.238-2.897
				c-0.14,0.032-0.305,0.064-0.448,0.084l-31.124,4.519h28.846c7.411,0,13.439,6.028,13.439,13.438v230.022h9.554
				c1.876-0.164,2.951-2.461,2.951-6.311c0-9.499,0.023-27.734,0.05-50.021C245.473,163.36,245.555,95.841,245.484,57.38z"/>
			<path style="fill:#FFFFFF;" d="M245.431,40.353c0.002,0.396,0.003,0.802,0.006,1.214
				C245.434,41.155,245.432,40.748,245.431,40.353z"/>
			<path style="fill:#FFFFFF;" d="M245.423,38.738c0.002,0.364,0.003,0.74,0.005,1.12C245.426,39.478,245.424,39.102,245.423,38.738
				z"/>
			<path style="fill:#FFFFFF;" d="M245.414,37.265c0.002,0.353,0.005,0.72,0.006,1.091
				C245.418,37.985,245.415,37.618,245.414,37.265z"/>
			<path style="fill:#FFFFFF;" d="M245.404,35.819c0.002,0.317,0.005,0.65,0.006,0.983
				C245.409,36.468,245.406,36.137,245.404,35.819z"/>
			<path style="fill:#FFFFFF;" d="M245.467,50.085c0,0.219,0.002,0.441,0.002,0.663C245.468,50.525,245.467,50.305,245.467,50.085z"
				/>
			<path style="fill:#FFFFFF;" d="M245.446,43.903c0.002,0.363,0.003,0.733,0.003,1.106
				C245.45,44.635,245.448,44.265,245.446,43.903z"/>
			<path style="fill:#FFFFFF;" d="M245.46,47.837c0,0.333,0.002,0.669,0.003,1.008C245.462,48.506,245.46,48.17,245.46,47.837z"/>
			<path style="fill:#FFFFFF;" d="M245.439,42.039c0.002,0.388,0.003,0.786,0.005,1.189
				C245.442,42.825,245.44,42.428,245.439,42.039z"/>
			<path style="fill:#FFFFFF;" d="M245.395,34.507c0.002,0.343,0.005,0.701,0.008,1.066C245.4,35.208,245.396,34.849,245.395,34.507
				z"/>
			<path style="fill:#FFFFFF;" d="M245.392,34.272c0-0.038,0-0.075,0-0.113v0C245.392,34.198,245.392,34.234,245.392,34.272z"/>
			<g>
				<path style="fill:#58D2D4;" d="M245.388,33.771c-0.002-0.194-0.003-0.384-0.005-0.57c0,0.045,0.001,0.089,0.001,0.136
					C245.386,33.476,245.387,33.625,245.388,33.771z"/>
				<path style="fill:#58D2D4;" d="M245.373,32.23c0.002,0.153,0.004,0.317,0.005,0.48c-0.005-0.467-0.01-0.881-0.014-1.29
					c0.001,0.127,0.003,0.253,0.004,0.381C245.37,31.944,245.372,32.08,245.373,32.23z"/>
				<path style="fill:#58D2D4;" d="M245.392,34.158c-0.914-4.878-3.075-8.509-6.007-10.82c-6.621-5.216-17.133-2.921-17.238-2.897
					c-0.14,0.032-0.305,0.049-0.448,0.07l-31.124,4.505h28.846c7.411,0,11.237,6.056,11.237,13.466v228.534h11.756
					c1.876,0,2.951-1.717,2.951-5.567c0-9.499,0.023-27.362,0.05-49.648C245.489,150.303,245.601,59.526,245.392,34.158z"/>
			</g>
			<path style="fill:#FFFFFF;" d="M245.482,57.152c0,0.076,0,0.152,0.002,0.229C245.482,57.303,245.482,57.228,245.482,57.152z"/>
			<path style="fill:#FFFFFF;" d="M245.471,52.215c0.002,0.294,0.002,0.588,0.003,0.886
				C245.473,52.804,245.473,52.508,245.471,52.215z"/>
			<path style="fill:#FFFFFF;" d="M245.478,54.338c0,0.311,0,0.622,0.002,0.937C245.478,54.959,245.478,54.649,245.478,54.338z"/>
			<path style="fill:#FFFFFF;" d="M245.453,45.81c0.002,0.344,0.003,0.693,0.005,1.046C245.456,46.503,245.454,46.154,245.453,45.81
				z"/>
			<path style="fill:#B74B00;" d="M256.512,30.183c-0.159-11.005-3.624-19.229-10.298-24.443
				c-10.208-7.973-24.115-5.464-26.314-5.003L52.285,25.077c-7.123,0.326-12.822,6.205-12.822,13.406v244.215
				c0,7.41,6.03,13.438,13.44,13.438h166.516c7.411,0,13.439-6.028,13.439-13.438v-3.031h9.611c0.012,0,0.025,0,0.037,0
				c1.085,0,5.45-0.244,9.185-3.92c3.208-3.156,4.834-7.716,4.834-13.554c0-9.496,0.023-27.726,0.05-50.006
				C256.655,147.032,256.777,48.571,256.512,30.183z M221.695,282.698c0,1.255-1.021,2.276-2.277,2.276H52.903
				c-1.257,0-2.278-1.021-2.278-2.276V38.483c0-1.255,1.022-2.276,2.278-2.276h166.516c1.255,0,2.277,1.021,2.277,2.276V282.698z
				 M245.362,262.194c0,3.85-1.075,6.147-2.951,6.311h-9.554V38.483c0-7.41-6.028-13.438-13.439-13.438h-28.846h-60.397
				l91.521-13.29c0.143-0.021,0.308-0.052,0.448-0.084c0.106-0.024,10.617-2.319,17.238,2.897c3.853,3.035,5.86,8.342,5.967,15.775
				c0.003,0.278,0.008,0.575,0.011,0.89c0.003,0.179,0.005,0.377,0.006,0.568c0.002,0.143,0.003,0.279,0.005,0.428
				c0.003,0.218,0.005,0.453,0.008,0.684c0.002,0.142,0.003,0.276,0.003,0.423c0.003,0.264,0.005,0.544,0.008,0.823
				c0,0.038,0,0.074,0,0.113c0.002,0.08,0.002,0.155,0.003,0.235c0.002,0.342,0.005,0.702,0.008,1.066
				c0,0.083,0.002,0.162,0.002,0.247c0.002,0.318,0.005,0.649,0.006,0.983c0.002,0.154,0.002,0.304,0.003,0.463
				c0.002,0.353,0.005,0.72,0.006,1.091c0.002,0.128,0.002,0.252,0.003,0.382c0.002,0.364,0.003,0.74,0.005,1.12
				c0.002,0.164,0.002,0.327,0.003,0.494c0.002,0.396,0.003,0.802,0.006,1.214c0,0.157,0,0.313,0.002,0.472
				c0.002,0.389,0.003,0.786,0.005,1.189c0.002,0.224,0.002,0.447,0.003,0.675c0.002,0.363,0.003,0.733,0.003,1.106
				c0.001,0.266,0.003,0.532,0.003,0.802c0.002,0.344,0.003,0.693,0.005,1.046c0,0.324,0.002,0.651,0.003,0.982
				c0,0.333,0.002,0.669,0.003,1.008c0,0.409,0.002,0.82,0.003,1.239c0,0.22,0.002,0.44,0.002,0.663
				c0.002,0.482,0.003,0.973,0.003,1.467c0.002,0.294,0.002,0.589,0.003,0.886c0,0.407,0.002,0.821,0.003,1.237
				c0,0.311,0,0.621,0.002,0.937c0.002,0.618,0.003,1.243,0.003,1.877c0,0.077,0,0.152,0.002,0.229
				c0.072,38.461-0.011,105.979-0.072,154.793C245.386,234.459,245.362,252.695,245.362,262.194z"/>
		</g>
		<path style="fill:#FDBD1D;" d="M141.656,195.017v10h15.038c0.758-2,1.233-8,1.403-10H141.656z"/>
		<g>
			<path style="fill:#FDBD1D;" d="M164.242,167.119c0.074,0.318,0.161,0.639,0.23,0.956
				C164.403,167.758,164.315,167.438,164.242,167.119z"/>
			<path style="fill:#FDBD1D;" d="M165,170.793c0.049,0.273,0.112,0.548,0.158,0.821C165.111,171.342,165.049,171.067,165,170.793z"
				/>
			<path style="fill:#FDBD1D;" d="M163.32,163.523c0.092,0.327,0.197,0.656,0.284,0.983
				C163.517,164.179,163.412,163.85,163.32,163.523z"/>
			<path style="fill:#FDBD1D;" d="M153.078,165.017h-11.422v-9.026l0,0v20.026h14.621c-0.458-3-0.983-4.197-1.613-6.207
				C154.173,168.243,153.638,168.017,153.078,165.017z"/>
			<path style="fill:#FDBD1D;" d="M162.568,160.96c-0.017-0.053-0.03-0.106-0.047-0.16c-0.391-1.229-0.819-2.42-1.254-3.599
				C161.721,158.431,162.163,159.677,162.568,160.96z"/>
		</g>
		<g>
			<path style="fill:#FDBD1D;" d="M176.421,195.017c0.088-3,0.141-1.462,0.215-2.05c-0.499,4.017-1.302,10.05-2.552,12.05h7.311
				c1.036-2,1.765-8,2.129-10H176.421z"/>
			<path style="fill:#FDBD1D;" d="M176.887,190.438c0.137-1.397,0.24-2.783,0.297-4.149
				C177.126,187.655,177.022,189.041,176.887,190.438z"/>
		</g>
		<g>
			<path style="fill:#FDBD1D;" d="M172.88,156.576c0.092,0.28,0.188,0.557,0.279,0.839c-0.09-0.283-0.185-0.559-0.277-0.839H172.88z
				"/>
			<path style="fill:#FDBD1D;" d="M175.105,165.017c-0.127,0-0.272-0.866-0.407-1.407c0.956,3.821,1.729,6.407,2.159,12.407h5.262
				c-0.925-6-2.208-8-3.829-11H175.105z"/>
			<path style="fill:#FDBD1D;" d="M173.158,157.416c0.384,1.207,0.745,2.457,1.091,3.731
				C173.905,159.871,173.543,158.623,173.158,157.416z"/>
		</g>
		<path style="fill:#B74B00;" d="M136.16,113.929c-36.822,0-66.779,29.956-66.779,66.778c0,36.821,29.957,66.777,66.779,66.777
			s66.778-29.956,66.778-66.777C202.939,143.885,172.982,113.929,136.16,113.929z M112.224,130.514
			c-2.71,4.08-5.673,9.101-8.369,14.9H93.21C98.358,139.16,104.844,134.048,112.224,130.514z M86.058,156.576h13.381
			c-0.092,0.28-0.187,0.557-0.277,0.839c-1.686,5.299-3.057,11.26-3.7,17.71H80.824C81.485,168.539,83.295,162.287,86.058,156.576z
			 M86.058,204.838c-2.762-5.712-4.573-11.964-5.234-18.55h14.312c0.249,5.93,1.196,12.148,3.101,18.55H86.058z M110.877,230.218
			c-6.821-3.497-12.836-8.349-17.667-14.217h9.287 M130.579,236.042c-0.145-0.014-0.288-0.034-0.433-0.05
			c-0.218-0.368-0.477-0.719-0.787-1.039c-5.913-6.122-10.693-12.444-14.348-18.952h15.568V236.042z M130.579,204.838h-20.661
			c-2.143-6.043-3.365-12.23-3.667-18.55h24.329V204.838z M130.579,175.126H106.66c0.546-4.594,1.548-9.251,3.026-13.968
			c0.492-1.567,1.026-3.093,1.587-4.581h19.307V175.126z M130.579,145.414h-14.241c6.178-11.596,12.928-18.852,13.062-18.993
			c0.293-0.31,0.539-0.647,0.747-1c0.145-0.016,0.286-0.035,0.431-0.049V145.414z M179.11,145.414h-10.645
			c-2.695-5.8-5.659-10.82-8.37-14.9C167.476,134.047,173.962,139.16,179.11,145.414z M141.741,125.372
			c0.143,0.014,0.286,0.033,0.43,0.049c0.21,0.355,0.458,0.693,0.754,1.004c0.093,0.099,6.864,7.319,13.068,18.989h-14.252V125.372z
			 M141.741,156.576h19.308c0.517,1.374,1.012,2.781,1.472,4.224c1.54,4.841,2.582,9.616,3.143,14.326h-23.922V156.576z
			 M141.741,186.288h24.329c-0.302,6.32-1.525,12.506-3.667,18.55h-20.661V186.288z M142.959,234.952
			c-0.31,0.321-0.568,0.672-0.785,1.039c-0.145,0.016-0.288,0.036-0.433,0.05V216h15.566
			C153.653,222.507,148.873,228.83,142.959,234.952z M161.442,230.219c3.417-4.776,6.181-9.529,8.381-14.218h9.287
			C174.278,221.869,168.263,226.721,161.442,230.219z M186.263,204.838h-12.179c1.903-6.402,2.851-12.62,3.101-18.55h14.312
			C190.836,192.874,189.025,199.126,186.263,204.838z M191.496,175.126h-14.639c-0.643-6.45-2.013-12.411-3.698-17.71
			c-0.09-0.283-0.187-0.559-0.279-0.839h13.383C189.025,162.287,190.836,168.539,191.496,175.126z"/>
	</g>
</g>
<g>
</g>
<g>
</g>
<g>
</g>
<g>
</g>
<g>
</g>
<g>
</g>
<g>
</g>
<g>
</g>
<g>
</g>
<g>
</g>
<g>
</g>
<g>
</g>
<g>
</g>
<g>
</g>
<g>
</g>
</svg>
