<?xml version="1.0" encoding="iso-8859-1"?>
<!-- Generator: Adobe Illustrator 19.0.0, SVG Export Plug-In . SVG Version: 6.00 Build 0)  -->
<svg version="1.1" id="Layer_1" xmlns="http://www.w3.org/2000/svg" xmlns:xlink="http://www.w3.org/1999/xlink" x="0px" y="0px"
	 viewBox="0 0 512 512" style="enable-background:new 0 0 512 512;" xml:space="preserve">
<path style="fill:#FF5A4E;" d="M436.966,512H83.862c-9.751,0-17.655-7.904-17.655-17.655V17.655C66.207,7.904,74.111,0,83.862,0
	h353.103c9.751,0,17.655,7.904,17.655,17.655v476.69C454.621,504.096,446.717,512,436.966,512z"/>
<path style="fill:#DA4439;" d="M83.862,0c-9.751,0-17.655,7.904-17.655,17.655v476.69c0,9.751,7.904,17.655,17.655,17.655h17.655V0
	H83.862z"/>
<g>
	<path style="fill:#FFB432;" d="M83.862,70.621H66.207c-4.875,0-8.828-3.953-8.828-8.828s3.953-8.828,8.828-8.828h17.655
		c4.875,0,8.828,3.953,8.828,8.828S88.737,70.621,83.862,70.621z"/>
	<path style="fill:#FFB432;" d="M83.862,459.034H66.207c-4.875,0-8.828-3.953-8.828-8.828c0-4.875,3.953-8.828,8.828-8.828h17.655
		c4.875,0,8.828,3.953,8.828,8.828C92.69,455.082,88.737,459.034,83.862,459.034z"/>
</g>
<path style="fill:#FFC83C;" d="M339.862,476.69H216.276c-4.875,0-8.828-3.948-8.828-8.828c0-34.069-27.72-61.793-61.793-61.793
	c-4.875,0-8.828-3.948-8.828-8.828V114.759c0-4.875,3.953-8.828,8.828-8.828c34.073,0,61.793-27.72,61.793-61.793
	c0-4.875,3.953-8.828,8.828-8.828h123.586c4.875,0,8.828,3.953,8.828,8.828c0,34.073,27.72,61.793,61.793,61.793
	c4.875,0,8.828,3.953,8.828,8.828v282.483c0,4.879-3.953,8.828-8.828,8.828c-34.073,0-61.793,27.724-61.793,61.793
	C348.69,472.742,344.737,476.69,339.862,476.69z M224.617,459.034h106.905c4.082-36.767,33.366-66.051,70.134-70.13V123.1
	c-36.768-4.083-66.052-33.367-70.135-70.134H224.616c-4.082,36.767-33.366,66.051-70.134,70.134v265.806
	C191.25,392.983,220.534,422.268,224.617,459.034z"/>
<g>
	<path style="fill:#FFB432;" d="M145.655,88.276c-4.875,0-8.828-3.953-8.828-8.828v-35.31c0-4.875,3.953-8.828,8.828-8.828h35.31
		c4.875,0,8.828,3.953,8.828,8.828C189.793,68.474,169.992,88.276,145.655,88.276z M154.483,52.966v16.142
		c7.513-2.664,13.479-8.629,16.142-16.142H154.483z"/>
	<path style="fill:#FFB432;" d="M410.483,88.276c-24.337,0-44.138-19.801-44.138-44.138c0-4.875,3.953-8.828,8.828-8.828h35.31
		c4.875,0,8.828,3.953,8.828,8.828v35.31C419.31,84.323,415.358,88.276,410.483,88.276z M385.513,52.966
		c2.664,7.513,8.629,13.479,16.142,16.142V52.966H385.513z"/>
	<path style="fill:#FFB432;" d="M410.483,476.69h-35.31c-4.875,0-8.828-3.948-8.828-8.828c0-24.337,19.801-44.138,44.138-44.138
		c4.875,0,8.828,3.948,8.828,8.828v35.31C419.31,472.742,415.358,476.69,410.483,476.69z M385.513,459.034h16.142v-16.147
		C394.142,445.551,388.177,451.518,385.513,459.034z"/>
	<path style="fill:#FFB432;" d="M180.966,476.69h-35.31c-4.875,0-8.828-3.948-8.828-8.828v-35.31c0-4.879,3.953-8.828,8.828-8.828
		c24.337,0,44.138,19.801,44.138,44.138C189.793,472.742,185.841,476.69,180.966,476.69z M154.483,459.034h16.142
		c-2.664-7.518-8.629-13.483-16.142-16.147V459.034z"/>
</g>
<g>
	<path style="fill:#FFC83C;" d="M278.069,397.241c-77.879,0-141.241-63.362-141.241-141.241s63.362-141.241,141.241-141.241
		S419.31,178.121,419.31,256S355.948,397.241,278.069,397.241z M278.069,132.414c-68.147,0-123.586,55.439-123.586,123.586
		s55.439,123.586,123.586,123.586S401.655,324.147,401.655,256S346.216,132.414,278.069,132.414z"/>
	<path style="fill:#FFC83C;" d="M277.866,300.138c-35.392,0-68.617-14.871-86.698-38.819c-2.379-3.147-2.379-7.491,0-10.638
		c18.082-23.948,51.306-38.819,86.698-38.819s68.612,14.871,86.694,38.819c2.379,3.147,2.379,7.491,0,10.638
		C346.478,285.267,313.259,300.138,277.866,300.138z M209.759,256c15.552,16.474,40.948,26.483,68.108,26.483
		c27.155,0,52.552-10.008,68.104-26.483c-15.552-16.474-40.948-26.483-68.104-26.483C250.707,229.517,225.311,239.526,209.759,256z"
		/>
</g>
<path style="fill:#FFB432;" d="M278.069,300.138c-24.337,0-44.138-19.801-44.138-44.138s19.801-44.138,44.138-44.138
	s44.138,19.801,44.138,44.138S302.406,300.138,278.069,300.138z M278.069,229.517c-14.603,0-26.483,11.88-26.483,26.483
	s11.88,26.483,26.483,26.483s26.483-11.88,26.483-26.483S292.672,229.517,278.069,229.517z"/>
<g>
	<path style="fill:#FFC83C;" d="M278.069,132.414c-4.875,0-8.828-3.953-8.828-8.828V79.448c0-4.875,3.953-8.828,8.828-8.828
		s8.828,3.953,8.828,8.828v44.138C286.897,128.461,282.944,132.414,278.069,132.414z"/>
	<path style="fill:#FFC83C;" d="M313.379,132.414c-4.875,0-8.828-3.953-8.828-8.828V44.138c0-4.875,3.953-8.828,8.828-8.828
		s8.828,3.953,8.828,8.828v79.448C322.207,128.461,318.254,132.414,313.379,132.414z"/>
	<path style="fill:#FFC83C;" d="M242.759,132.414c-4.875,0-8.828-3.953-8.828-8.828V44.138c0-4.875,3.953-8.828,8.828-8.828
		s8.828,3.953,8.828,8.828v79.448C251.586,128.461,247.634,132.414,242.759,132.414z"/>
	<path style="fill:#FFC83C;" d="M278.069,441.379c-4.875,0-8.828-3.948-8.828-8.828v-44.138c0-4.879,3.953-8.828,8.828-8.828
		s8.828,3.948,8.828,8.828v44.138C286.897,437.431,282.944,441.379,278.069,441.379z"/>
	<path style="fill:#FFC83C;" d="M313.379,476.69c-4.875,0-8.828-3.948-8.828-8.828v-79.448c0-4.879,3.953-8.828,8.828-8.828
		s8.828,3.948,8.828,8.828v79.448C322.207,472.742,318.254,476.69,313.379,476.69z"/>
	<path style="fill:#FFC83C;" d="M242.759,476.69c-4.875,0-8.828-3.948-8.828-8.828v-79.448c0-4.879,3.953-8.828,8.828-8.828
		s8.828,3.948,8.828,8.828v79.448C251.586,472.742,247.634,476.69,242.759,476.69z"/>
</g>
<g>
</g>
<g>
</g>
<g>
</g>
<g>
</g>
<g>
</g>
<g>
</g>
<g>
</g>
<g>
</g>
<g>
</g>
<g>
</g>
<g>
</g>
<g>
</g>
<g>
</g>
<g>
</g>
<g>
</g>
</svg>
