<?xml version="1.0" encoding="iso-8859-1"?>
<!-- Generator: Adobe Illustrator 19.0.0, SVG Export Plug-In . SVG Version: 6.00 Build 0)  -->
<svg version="1.1" id="Layer_1" xmlns="http://www.w3.org/2000/svg" xmlns:xlink="http://www.w3.org/1999/xlink" x="0px" y="0px"
	 viewBox="0 0 512 512" style="enable-background:new 0 0 512 512;" xml:space="preserve">
<path style="fill:#314E55;" d="M398.09,286.165c-2.94,0.365-5.93,0.555-8.97,0.555c-39.52,0-71.68-32.155-71.68-71.68
	s32.16-71.68,71.68-71.68c3.04,0,6.03,0.19,8.97,0.555c2.9,0.385,5.85-0.535,8.05-2.485c2.2-1.94,3.46-4.74,3.46-7.675V20.48
	c0-5.655-4.58-10.24-10.24-10.24H10.24C4.58,10.24,0,14.825,0,20.48V409.6c0,5.655,4.58,10.24,10.24,10.24h102.97
	c5.11,46.015,44.23,81.92,91.59,81.92s86.48-35.905,91.59-81.92h102.97c5.66,0,10.24-4.585,10.24-10.24V296.325
	c0-2.935-1.26-5.735-3.46-7.675C403.94,286.705,400.99,285.775,398.09,286.165z"/>
<path style="fill:#EA86A5;" d="M389.12,399.36h-102.4c-5.66,0-10.24,4.585-10.24,10.24c0,39.525-32.16,71.68-71.68,71.68
	s-71.68-32.155-71.68-71.68c0-5.655-4.58-10.24-10.24-10.24H20.48V30.72h368.64v92.16c-50.82,0-92.16,41.345-92.16,92.16
	s41.34,92.16,92.16,92.16V399.36z"/>
<g>
	<path style="fill:#314E55;" d="M215.04,51.2H51.2c-5.66,0-10.24,4.585-10.24,10.24v163.84c0,5.655,4.58,10.24,10.24,10.24
		s10.24-4.585,10.24-10.24V71.68h153.6c5.66,0,10.24-4.585,10.24-10.24S220.7,51.2,215.04,51.2z"/>
	<path style="fill:#314E55;" d="M501.76,204.8h-69.921l25.961-25.965c4-4,4-10.48,0-14.48c-4-4-10.48-4-14.48,0L399.88,207.8
		c-4,4-4,10.48,0,14.48l43.44,43.445c2,2,4.62,3,7.24,3c2.62,0,5.24-1,7.24-3c4-4,4-10.48,0-14.48l-25.961-25.965h69.921
		c5.66,0,10.24-4.585,10.24-10.24S507.42,204.8,501.76,204.8z"/>
</g>
<g>
</g>
<g>
</g>
<g>
</g>
<g>
</g>
<g>
</g>
<g>
</g>
<g>
</g>
<g>
</g>
<g>
</g>
<g>
</g>
<g>
</g>
<g>
</g>
<g>
</g>
<g>
</g>
<g>
</g>
</svg>
