<?xml version="1.0" encoding="iso-8859-1"?>
<!-- Generator: Adobe Illustrator 19.0.0, SVG Export Plug-In . SVG Version: 6.00 Build 0)  -->
<svg version="1.1" id="Layer_1" xmlns="http://www.w3.org/2000/svg" xmlns:xlink="http://www.w3.org/1999/xlink" x="0px" y="0px"
	 viewBox="0 0 512.003 512.003" style="enable-background:new 0 0 512.003 512.003;" xml:space="preserve">
<path style="fill:#CCCCCC;" d="M228.723,346.835V471.82h-39.33V362.785c3.235-0.4,6.507-0.824,9.829-1.286
	c11.166-1.549,21.52-6.707,29.488-14.675L228.723,346.835z"/>
<path style="fill:#0B9B53;" d="M502.634,251.989v26.328l-203.869,16.012c-12.29,0.962-23.83,6.282-32.548,15l-37.507,37.494
	c-7.968,7.968-18.322,13.127-29.488,14.675c-3.322,0.462-6.595,0.887-9.829,1.286c-72.64,8.843-123.398,0.712-152.087-7.044v-0.013
	l39.305-76.512c9.192-17.898,27.402-29.338,47.511-29.888c126.458-3.497,282.429-5.97,339.57-15.15L502.634,251.989z"/>
<path style="fill:#999999;" d="M228.723,346.835v44.938l-0.012,0.013c-7.968,7.968-18.322,13.127-29.488,14.675
	c-3.322,0.462-6.595,0.887-9.829,1.286v-44.963c3.235-0.4,6.507-0.824,9.829-1.286c11.166-1.549,21.52-6.707,29.488-14.675
	L228.723,346.835z"/>
<path style="fill:#06B559;" d="M450.34,193.612l13.351,40.567c-57.14,9.18-213.112,11.653-339.57,15.15
	c-20.108,0.55-38.318,11.99-47.511,29.888l-39.305,76.512v0.013c-18.61-5.033-27.939-9.917-27.939-9.917
	c4.022-12.078,5.545-44.588,5.745-83.718c0.287-58.489,23.181-111.883,60.588-151.637c37.394-39.755,89.314-65.858,147.666-69.78
	C325.068,33.869,418.466,96.804,450.34,193.612z"/>
<path style="fill:#0B9B53;" d="M150.648,131.441c34.197-36.355,81.676-60.227,135.039-63.814c25.79-1.73,50.994,1.454,74.578,8.835
	c-39.516-25.781-87.216-39.105-136.902-35.774c-58.352,3.922-110.272,30.025-147.666,69.78
	c-37.407,39.755-60.3,93.148-60.588,151.637c-0.2,39.13-1.724,71.641-5.745,83.718c0,0,9.33,4.883,27.939,9.917v-0.013
	l39.305-76.512c4.48-8.722,11.111-15.893,19.049-21.035C98.729,209.385,119.002,165.073,150.648,131.441z"/>
<g>
	<path style="fill:#333333;" d="M506.528,243.478l-35.22-16.107l-12.073-36.68C426.019,89.756,328.779,24.227,222.744,31.346
		c-58.825,3.948-113.471,29.768-153.869,72.706C28.462,147.005,6.043,203.119,5.749,262.058
		c-0.272,54.539-3.015,74.043-5.267,80.801c-1.454,4.36,0.471,9.131,4.545,11.262c2.133,1.117,43.032,21.911,122.941,21.911
		c15.817,0,33.18-0.823,52.06-2.768v98.554c0,5.173,4.194,9.367,9.367,9.367h39.33c5.173,0,9.367-4.194,9.367-9.367v-121.11
		l34.75-34.75c7.134-7.135,16.604-11.501,26.664-12.29l203.862-16.008c4.875-0.383,8.634-4.45,8.634-9.339v-26.325
		C512,248.332,509.862,245.002,506.528,243.478z M24.484,262.15c0.27-54.183,20.88-105.771,58.035-145.26
		c37.147-39.48,87.392-63.222,141.481-66.851c97.475-6.547,186.898,53.704,217.442,146.51l9.846,29.915
		c-52.589,6.478-160.152,9.21-264.424,11.858c-21.407,0.543-42.585,1.082-62.993,1.645c-23.541,0.648-44.841,14.051-55.585,34.974
		l-35.758,69.593c-5.117-1.562-9.209-3.021-12.245-4.2C22.916,325.619,24.296,299.847,24.484,262.15z M198.761,462.45v-91.436
		c0.592-0.08,1.165-0.147,1.76-0.23c6.558-0.913,12.932-2.911,18.836-5.851v97.517H198.761z M493.266,269.66l-195.228,15.33
		c-14.504,1.139-28.158,7.433-38.445,17.72l-37.495,37.495c-6.488,6.488-15.068,10.757-24.16,12.024
		c-67.182,9.354-116.284,3.911-146.834-2.853l33.847-65.876c7.621-14.841,22.732-24.347,39.437-24.807
		c20.396-0.565,41.558-1.102,62.951-1.644c110.601-2.808,224.889-5.71,275.006-13.178l30.921,14.141V269.66z"/>
	<circle style="fill:#333333;" cx="235.381" cy="203.409" r="9.367"/>
</g>
<g>
</g>
<g>
</g>
<g>
</g>
<g>
</g>
<g>
</g>
<g>
</g>
<g>
</g>
<g>
</g>
<g>
</g>
<g>
</g>
<g>
</g>
<g>
</g>
<g>
</g>
<g>
</g>
<g>
</g>
</svg>
