<?xml version="1.0" encoding="iso-8859-1"?>
<!-- Generator: Adobe Illustrator 19.0.0, SVG Export Plug-In . SVG Version: 6.00 Build 0)  -->
<svg version="1.1" id="Capa_1" xmlns="http://www.w3.org/2000/svg" xmlns:xlink="http://www.w3.org/1999/xlink" x="0px" y="0px"
	 viewBox="0 0 470 470" style="enable-background:new 0 0 470 470;" xml:space="preserve">
<g>
	<path style="fill:#F59B45;" d="M390.087,135.474c0.208,4.135-2.974,7.656-7.108,7.867l-71.706,3.653
		c19.327,16.773,33.088,39.794,38.123,65.886l38.975-60.207c1.081-1.671,2.783-2.843,4.729-3.259
		c1.944-0.417,3.978-0.041,5.647,1.042c3.077,1.996,6.646,3.051,10.319,3.051c10.479,0,19.005-8.526,19.005-19.005
		s-8.525-19.005-19.005-19.005c-10.479,0-19.004,8.526-19.004,19.005C390.063,134.829,390.071,135.152,390.087,135.474z"/>
	<path style="fill:#F59B45;" d="M226.354,50.927c3.685,1.888,5.143,6.404,3.258,10.089l-32.653,63.857
		c11.928-4.132,24.726-6.384,38.042-6.384s26.114,2.252,38.042,6.384l-32.653-63.857c-1.885-3.686-0.427-8.201,3.258-10.089
		c6.389-3.274,10.358-9.758,10.358-16.922C254.005,23.526,245.479,15,235,15s-19.005,8.526-19.005,19.005
		C215.995,41.168,219.965,47.653,226.354,50.927z"/>
	<path style="fill:#F59B45;" d="M76.9,149.414c1.946,0.416,3.648,1.588,4.729,3.259l38.975,60.207
		c5.035-26.091,18.795-49.113,38.123-65.886l-71.706-3.653c-4.135-0.211-7.316-3.732-7.108-7.867
		c0.016-0.322,0.024-0.646,0.024-0.972c0-10.479-8.525-19.005-19.004-19.005c-10.479,0-19.005,8.526-19.005,19.005
		s8.525,19.005,19.005,19.005c3.674,0,7.242-1.055,10.319-3.051C72.923,149.374,74.957,148.999,76.9,149.414z"/>
	<path style="fill:#F59B45;" d="M79.913,334.526c-0.208-4.135,2.974-7.656,7.108-7.867l71.706-3.653
		c-19.328-16.773-33.088-39.794-38.123-65.886L81.63,317.327c-1.081,1.671-2.783,2.843-4.729,3.259
		c-1.945,0.415-3.979,0.041-5.647-1.042c-3.077-1.996-6.646-3.051-10.319-3.051c-10.479,0-19.005,8.526-19.005,19.005
		s8.525,19.005,19.005,19.005c10.479,0,19.004-8.526,19.004-19.005C79.938,335.171,79.929,334.848,79.913,334.526z"/>
	<path style="fill:#F59B45;" d="M243.646,419.073c-3.685-1.888-5.143-6.404-3.258-10.089l32.618-63.788
		c-12.043,4.135-24.847,6.314-38.007,6.314c-13.316,0-26.114-2.252-38.042-6.384l32.653,63.857
		c1.885,3.686,0.427,8.201-3.258,10.089c-6.389,3.274-10.358,9.758-10.358,16.922c0,10.479,8.525,19.005,19.005,19.005
		s19.005-8.526,19.005-19.005C254.005,428.832,250.035,422.347,243.646,419.073z"/>
	<path style="fill:#F59B45;" d="M428.071,335.498c0-10.479-8.525-19.005-19.005-19.005c-3.674,0-7.242,1.055-10.319,3.051
		c-1.67,1.083-3.701,1.458-5.647,1.042c-1.946-0.416-3.648-1.588-4.729-3.259l-38.962-60.188
		c-1.426,7.401-3.572,14.649-6.433,21.691c-1.56,3.837-5.933,5.685-9.771,4.125c-0.083-0.034-0.161-0.076-0.242-0.113
		c-2.223,4.542-4.744,8.911-7.553,13.071c0.07,0.051,0.144,0.096,0.213,0.149c3.267,2.547,3.85,7.26,1.302,10.526
		c-4.705,6.033-9.916,11.515-15.543,16.421l71.599,3.648c4.135,0.211,7.316,3.732,7.108,7.867c-0.016,0.322-0.024,0.646-0.024,0.972
		c0,10.479,8.525,19.005,19.004,19.005C419.546,354.502,428.071,345.977,428.071,335.498z"/>
	<path style="fill:#E9B264;" d="M221.422,164.811C187.859,171.29,163.5,200.809,163.5,235c0,39.425,32.075,71.5,71.5,71.5
		s71.5-32.075,71.5-71.5c0-34.191-24.359-63.71-57.922-70.189c-3.95-0.763-6.565-4.497-5.991-8.438
		C240.089,156.133,237.56,156,235,156s-5.089,0.133-7.587,0.372C227.987,160.313,225.372,164.048,221.422,164.811z M254.383,218.09
		c2.881-2.686,7.35-2.688,10.23,0l24.502,22.85c3.029,2.825,3.194,7.571,0.37,10.6c-2.826,3.029-7.571,3.195-10.601,0.37
		l-19.387-18.079l-19.385,18.079c-2.882,2.687-7.351,2.687-10.23,0l-19.384-18.078l-19.384,18.078
		c-1.445,1.348-3.281,2.015-5.113,2.015c-2.008,0-4.01-0.801-5.486-2.385c-2.825-3.029-2.66-7.775,0.369-10.6l24.499-22.85
		c2.881-2.687,7.35-2.687,10.23,0l19.384,18.079L254.383,218.09z"/>
	<path style="fill:#E3C498;" d="M329.078,273.184c4.932-12.139,7.433-24.986,7.433-38.184c0-55.973-45.537-101.511-101.511-101.511
		S133.489,179.027,133.489,235S179.026,336.511,235,336.511c31.501,0,60.694-14.268,80.095-39.145
		c2.492-3.198,7.057-3.815,10.313-1.452c2.809-4.161,5.33-8.529,7.553-13.071C329.293,281.199,327.552,276.938,329.078,273.184z
		 M235,321.5c-47.696,0-86.5-38.804-86.5-86.5c0-41.365,29.473-77.078,70.078-84.917c4.076-0.787,8.001,1.876,8.786,5.942
		c0.022,0.116,0.032,0.231,0.049,0.347C229.911,156.133,232.44,156,235,156s5.089,0.133,7.587,0.372
		c0.017-0.116,0.027-0.231,0.049-0.347c0.785-4.066,4.712-6.729,8.786-5.942C292.027,157.922,321.5,193.635,321.5,235
		C321.5,282.696,282.696,321.5,235,321.5z"/>
	<path style="fill:#34150C;" d="M409.066,301.493c-4.033,0-7.995,0.71-11.729,2.084L352.945,235l44.393-68.577
		c3.733,1.374,7.695,2.084,11.729,2.084c18.75,0,34.005-15.255,34.005-34.005s-15.255-34.005-34.005-34.005
		c-16.772,0-30.747,12.206-33.509,28.202l-81.586,4.157l-37.19-72.731c7.675-6.376,12.224-15.858,12.224-26.121
		C269.005,15.255,253.75,0,235,0s-34.005,15.255-34.005,34.005c0,10.263,4.549,19.744,12.224,26.121l-37.19,72.731L94.442,128.7
		c-2.762-15.996-16.736-28.202-33.509-28.202c-18.75,0-34.005,15.255-34.005,34.005s15.255,34.005,34.005,34.005
		c4.033,0,7.995-0.71,11.729-2.084L117.055,235l-44.393,68.577c-3.733-1.374-7.695-2.084-11.729-2.084
		c-18.75,0-34.005,15.255-34.005,34.005s15.255,34.005,34.005,34.005c16.772,0,30.747-12.206,33.509-28.202l81.586-4.157
		l37.19,72.731c-7.675,6.376-12.224,15.858-12.224,26.121C200.995,454.745,216.25,470,235,470s34.005-15.255,34.005-34.005
		c0-10.263-4.549-19.744-12.224-26.121l37.19-72.731l81.586,4.157c2.762,15.996,16.736,28.202,33.509,28.202
		c18.75,0,34.005-15.255,34.005-34.005S427.816,301.493,409.066,301.493z M390.063,335.498c0-0.326,0.009-0.65,0.024-0.972
		c0.208-4.135-2.974-7.656-7.108-7.867l-71.599-3.648c5.627-4.906,10.839-10.388,15.543-16.421
		c2.548-3.266,1.965-7.979-1.302-10.526c-0.069-0.054-0.143-0.098-0.213-0.149c-3.257-2.364-7.822-1.746-10.313,1.452
		c-19.4,24.877-48.594,39.145-80.095,39.145c-55.974,0-101.511-45.538-101.511-101.511S179.026,133.489,235,133.489
		S336.511,179.027,336.511,235c0,13.198-2.501,26.045-7.433,38.184c-1.526,3.754,0.215,8.015,3.883,9.659
		c0.082,0.037,0.159,0.079,0.242,0.113c3.839,1.559,8.212-0.289,9.771-4.125c2.861-7.042,5.007-14.29,6.433-21.691l38.962,60.188
		c1.081,1.671,2.783,2.843,4.729,3.259c1.946,0.416,3.978,0.041,5.647-1.042c3.077-1.996,6.646-3.051,10.319-3.051
		c10.479,0,19.005,8.526,19.005,19.005s-8.525,19.005-19.005,19.005C398.588,354.502,390.063,345.977,390.063,335.498z M235,455
		c-10.479,0-19.005-8.526-19.005-19.005c0-7.164,3.97-13.648,10.358-16.922c3.685-1.888,5.143-6.404,3.258-10.089l-32.653-63.857
		c11.928,4.132,24.726,6.384,38.042,6.384c13.159,0,25.964-2.179,38.007-6.314l-32.618,63.788
		c-1.885,3.686-0.427,8.201,3.258,10.089c6.389,3.274,10.358,9.758,10.358,16.922C254.005,446.474,245.479,455,235,455z
		 M60.934,354.502c-10.479,0-19.005-8.526-19.005-19.005s8.525-19.005,19.005-19.005c3.674,0,7.242,1.055,10.319,3.051
		c1.669,1.083,3.702,1.458,5.647,1.042c1.946-0.416,3.648-1.588,4.729-3.259l38.975-60.207
		c5.035,26.091,18.795,49.113,38.123,65.886l-71.706,3.653c-4.135,0.211-7.316,3.732-7.108,7.867
		c0.016,0.322,0.024,0.646,0.024,0.972C79.938,345.977,71.412,354.502,60.934,354.502z M60.934,153.507
		c-10.479,0-19.005-8.526-19.005-19.005s8.525-19.005,19.005-19.005c10.479,0,19.004,8.526,19.004,19.005
		c0,0.326-0.009,0.65-0.024,0.972c-0.208,4.135,2.974,7.656,7.108,7.867l71.706,3.653c-19.328,16.773-33.088,39.794-38.123,65.886
		L81.63,152.673c-1.081-1.671-2.783-2.843-4.729-3.259c-1.943-0.416-3.978-0.041-5.647,1.042
		C68.176,152.452,64.607,153.507,60.934,153.507z M235,15c10.479,0,19.005,8.526,19.005,19.005c0,7.164-3.97,13.648-10.358,16.922
		c-3.685,1.888-5.143,6.404-3.258,10.089l32.653,63.857c-11.928-4.132-24.726-6.384-38.042-6.384s-26.114,2.252-38.042,6.384
		l32.653-63.857c1.885-3.686,0.427-8.201-3.258-10.089c-6.389-3.274-10.358-9.758-10.358-16.922C215.995,23.526,224.521,15,235,15z
		 M409.066,115.498c10.479,0,19.005,8.526,19.005,19.005s-8.525,19.005-19.005,19.005c-3.674,0-7.242-1.055-10.319-3.051
		c-1.67-1.083-3.703-1.459-5.647-1.042c-1.946,0.416-3.648,1.588-4.729,3.259l-38.975,60.207
		c-5.035-26.091-18.795-49.113-38.123-65.886l71.706-3.653c4.135-0.211,7.316-3.732,7.108-7.867
		c-0.016-0.322-0.024-0.646-0.024-0.972C390.063,124.023,398.588,115.498,409.066,115.498z"/>
	<path style="fill:#34150C;" d="M205.384,218.091l-24.499,22.85c-3.029,2.825-3.194,7.571-0.369,10.6
		c1.477,1.584,3.479,2.385,5.486,2.385c1.832,0,3.668-0.667,5.113-2.015l19.384-18.078l19.384,18.078
		c2.88,2.687,7.349,2.688,10.23,0l19.385-18.079l19.387,18.079c3.029,2.825,7.774,2.659,10.601-0.37
		c2.824-3.029,2.659-7.775-0.37-10.6l-24.502-22.85c-2.881-2.687-7.35-2.686-10.23,0l-19.385,18.079l-19.384-18.079
		C212.733,215.404,208.265,215.404,205.384,218.091z"/>
	<path style="fill:#34150C;" d="M251.422,150.083c-4.074-0.787-8.001,1.876-8.786,5.942c-0.022,0.116-0.032,0.231-0.049,0.347
		c-0.573,3.941,2.041,7.676,5.991,8.438C282.141,171.29,306.5,200.809,306.5,235c0,39.425-32.075,71.5-71.5,71.5
		s-71.5-32.075-71.5-71.5c0-34.191,24.359-63.71,57.922-70.189c3.95-0.763,6.565-4.497,5.991-8.438
		c-0.017-0.116-0.027-0.231-0.049-0.347c-0.785-4.066-4.71-6.73-8.786-5.942C177.973,157.922,148.5,193.635,148.5,235
		c0,47.696,38.804,86.5,86.5,86.5s86.5-38.804,86.5-86.5C321.5,193.635,292.027,157.922,251.422,150.083z"/>
</g>
<g>
</g>
<g>
</g>
<g>
</g>
<g>
</g>
<g>
</g>
<g>
</g>
<g>
</g>
<g>
</g>
<g>
</g>
<g>
</g>
<g>
</g>
<g>
</g>
<g>
</g>
<g>
</g>
<g>
</g>
</svg>
